<svg xmlns="http://www.w3.org/2000/svg" width="41" height="41" viewBox="0 0 41 41"><defs><style>.a{fill:#fff;fill-rule:evenodd;}</style></defs><path class="a" d="M791,5220.5a20.5,20.5,0,1,1,20.5,20.5A20.5,20.5,0,0,1,791,5220.5Zm5.519-5.75a16.056,16.056,0,0,1,9.228-9.23l2.268,5.39a10.135,10.135,0,0,0-3.726,2.37,10.28,10.28,0,0,0-2.383,3.71Zm9.211,20.72a16.055,16.055,0,0,1-9.21-9.22l5.386-2.22a10.2,10.2,0,0,0,6.088,6.06Zm20.744-9.2a16.061,16.061,0,0,1-9.2,9.2l-2.226-5.38a10.135,10.135,0,0,0,3.7-2.37,10.287,10.287,0,0,0,2.353-3.71Zm-9.194-20.74a16.088,16.088,0,0,1,9.194,9.2l-5.38,2.22a10.216,10.216,0,0,0-6.048-6.02Zm-11.93,14.97a6.15,6.15,0,1,0,6.15-6.15A6.144,6.144,0,0,0,805.35,5220.5Z" transform="translate(-791 -5200)"/></svg>