<svg xmlns="http://www.w3.org/2000/svg" width="41" height="41" viewBox="0 0 41 41"><defs><style>.a{fill:#fff;fill-rule:evenodd;}</style></defs><path class="a" d="M1251,5220.5a20.5,20.5,0,1,1,20.5,20.5A20.5,20.5,0,0,1,1251,5220.5Zm36.54,0a16.04,16.04,0,1,0-16.04,16.04A16.047,16.047,0,0,0,1287.54,5220.5Zm-10.11-5.88v3.2a2.784,2.784,0,0,1,2.54,2.77v7.46a2.78,2.78,0,0,1-2.75,2.56h-11.65a2.783,2.783,0,0,1-2.54-2.77v-7.46a2.743,2.743,0,0,1,2.54-2.56v-3.2c0-2.98,2.96-5.33,5.93-5.33S1277.43,5211.64,1277.43,5214.62Zm-9.11,3.2h6.36v-3.2a3.21,3.21,0,0,0-6.36,0Z" transform="translate(-1251 -5200)"/></svg>